<svg width="453" height="543" viewBox="0 0 453 543" fill="none" xmlns="http://www.w3.org/2000/svg">
<path d="M321.683 83.6714C396.399 101.156 470.328 74.5355 528.276 83.9009C586.428 93.6418 627.92 139.153 650.986 189.083C674.731 239.228 680.05 293.79 677.142 349.787C673.759 405.943 662.352 463.908 609.783 481.132C557.214 498.356 463.685 475.213 398.365 480.305C332.843 485.021 295.258 518.507 245.412 533.484C196.245 548.677 134.817 545.362 109.737 515.632C84.6564 485.903 95.9231 429.759 105.798 388.726C115.673 347.693 124.429 321.234 97.2747 276.228C70.1206 231.222 7.53269 167.509 0.932465 108.496C-5.46469 49.8591 45.0081 -3.48733 107.997 0.634543C170.985 4.75641 246.49 66.3466 321.683 83.6714Z" fill="#A9E5E3" fill-opacity="0.5"/>
</svg>
