<svg width="445" height="255" viewBox="0 0 445 255" fill="none" xmlns="http://www.w3.org/2000/svg">
<path d="M313.892 2.66707C358.706 -1.81725 406.926 14.3388 427.832 49.4944C438.294 67.0864 441.98 89.5463 442.844 113.468C443.655 135.91 441.984 159.369 441.219 181.133L441.079 185.463L441.079 185.47C440.522 208.208 441.316 228.657 441.239 247.307C441.166 265.445 440.274 282.028 436.584 297.93L436.219 299.467L436.218 299.473C428.68 330.988 410.042 360.111 387.662 389.395L385.485 392.229L385.484 392.23C362.693 421.813 336.665 451.573 304.26 464.747L302.712 465.362L302.701 465.367C269.81 478.423 229.593 474.208 187.772 467.454C166.886 463.857 145.863 459.61 127.36 452.851C108.854 446.09 93.0012 436.864 82.3319 423.397L82.3219 423.385L81.8146 422.75C71.2389 409.34 65.609 391.582 60.8932 371.719C56.2769 352.275 52.5341 330.774 45.787 309.961L45.1239 307.949C38.1773 286.508 27.7957 265.696 19.0125 245.411C10.3298 225.358 3.17592 205.759 2.05126 186.115L2.00263 185.18C0.114387 145.13 22.5829 104.496 56.8673 83.0719L57.6797 82.5699L57.6886 82.5635C74.9383 71.8172 95.327 65.9471 117.036 61.0807C137.989 56.3837 160.254 52.6097 181.725 46.2432L183.8 45.6189C205.916 38.8683 227.406 29.136 248.786 20.637C269.894 12.2464 290.974 5.02115 312.844 2.77187L313.886 2.66788L313.892 2.66707Z" stroke="#2CA6A4" stroke-opacity="0.5" stroke-width="3"/>
</svg>
